<?xml version="1.0" encoding="iso-8859-1"?>
<!-- Generator: Adobe Illustrator 19.0.0, SVG Export Plug-In . SVG Version: 6.00 Build 0)  -->
<svg version="1.1" id="Layer_1" xmlns="http://www.w3.org/2000/svg" xmlns:xlink="http://www.w3.org/1999/xlink" x="0px" y="0px"
	 viewBox="0 0 512.004 512.004" style="enable-background:new 0 0 512.004 512.004;" xml:space="preserve">
<path style="fill:#908C7C;" d="M468.081,229.654H52.962v117.37v123.365v26.778c0,8.193,6.644,14.838,14.838,14.838h385.084
	c8.198,0,15.198-6.644,15.198-14.838v-26.778l0,0V229.654z"/>
<path style="fill:#A4402F;" d="M468.081,229.654V64.215c0-14.37-11.647-26.017-26.013-26.017H78.974
	c-14.366,0-26.013,11.647-26.013,26.017v165.439H468.081z"/>
<rect x="52.962" y="219.76" style="fill:#B7B5AA;" width="415.133" height="18.638"/>
<path style="fill:#E7E1CE;" d="M459.034,220.25H43.914v117.366v123.365v26.778c0,8.193,6.64,14.838,14.838,14.838h385.084
	c8.193,0,15.198-6.644,15.198-14.838v-26.778l0,0L459.034,220.25L459.034,220.25z"/>
<path style="fill:#CD4E38;" d="M459.034,220.25V54.807c0-14.37-11.647-26.017-26.017-26.017H69.922
	c-14.366,0-26.013,11.647-26.013,26.017V220.25H459.034z"/>
<circle style="fill:#803326;" cx="114.502" cy="63.227" r="19.203"/>
<path style="fill:#2C2A25;" d="M114.502,73.583c-5.091,0-9.212-4.126-9.212-9.217V9.212c0-5.091,4.126-9.212,9.212-9.212l0,0
	c5.096,0,9.217,4.126,9.217,9.212v55.154C123.719,69.457,119.598,73.583,114.502,73.583L114.502,73.583z"/>
<circle style="fill:#803326;" cx="205.828" cy="63.227" r="19.203"/>
<path style="fill:#2C2A25;" d="M205.82,73.583c-5.091,0-9.217-4.126-9.217-9.217V9.212c0-5.091,4.13-9.212,9.217-9.212l0,0
	c5.091,0,9.212,4.126,9.212,9.212v55.154C215.032,69.457,210.906,73.583,205.82,73.583L205.82,73.583z"/>
<circle style="fill:#803326;" cx="297.128" cy="63.227" r="19.203"/>
<path style="fill:#2C2A25;" d="M297.128,73.583c-5.091,0-9.217-4.126-9.217-9.217V9.212c0-5.091,4.13-9.212,9.217-9.212l0,0
	c5.091,0,9.212,4.126,9.212,9.212v55.154C306.341,69.457,302.22,73.583,297.128,73.583L297.128,73.583z"/>
<circle style="fill:#803326;" cx="388.428" cy="63.227" r="19.203"/>
<path style="fill:#2C2A25;" d="M388.441,73.583c-5.091,0-9.217-4.126-9.217-9.217V9.212c0-5.091,4.13-9.212,9.217-9.212l0,0
	c5.091,0,9.217,4.126,9.217,9.212v55.154C397.658,69.457,393.528,73.583,388.441,73.583L388.441,73.583z"/>
<rect x="43.914" y="219.76" style="fill:#F6F0DB;" width="415.133" height="18.638"/>
<path id="SVGCleanerId_0" style="fill:#2C2A25;" d="M123.496,419.472h37.686v-90.895h-33.253V299.2
	c19.951-3.881,32.701-8.87,45.999-17.179h34.922v137.45h31.589v38.242H123.496V419.472z"/>
<path id="SVGCleanerId_1" style="fill:#2C2A25;" d="M359.897,329.129c-5.545-6.093-16.631-12.194-26.609-12.194
	c-17.179,0-30.761,11.923-32.421,47.388c8.594-11.362,23.556-17.459,32.973-17.459c29.933,0,53.209,16.627,53.209,54.317
	s-27.717,59.853-60.966,59.853c-33.81,0-68.723-24.384-68.723-88.122s34.918-94.224,72.604-94.224
	c24.94,0,43.231,10.534,54.869,22.167L359.897,329.129z M343.817,401.185c0-16.907-9.421-21.064-19.395-21.064
	c-8.037,0-16.075,4.161-22.448,14.967c3.881,24.664,14.41,30.481,23,30.481C334.952,425.564,343.817,419.748,343.817,401.185z"/>
<g>
	<path id="SVGCleanerId_0_1_" style="fill:#2C2A25;" d="M123.496,419.472h37.686v-90.895h-33.253V299.2
		c19.951-3.881,32.701-8.87,45.999-17.179h34.922v137.45h31.589v38.242H123.496V419.472z"/>
</g>
<g>
	<path id="SVGCleanerId_1_1_" style="fill:#2C2A25;" d="M359.897,329.129c-5.545-6.093-16.631-12.194-26.609-12.194
		c-17.179,0-30.761,11.923-32.421,47.388c8.594-11.362,23.556-17.459,32.973-17.459c29.933,0,53.209,16.627,53.209,54.317
		s-27.717,59.853-60.966,59.853c-33.81,0-68.723-24.384-68.723-88.122s34.918-94.224,72.604-94.224
		c24.94,0,43.231,10.534,54.869,22.167L359.897,329.129z M343.817,401.185c0-16.907-9.421-21.064-19.395-21.064
		c-8.037,0-16.075,4.161-22.448,14.967c3.881,24.664,14.41,30.481,23,30.481C334.952,425.564,343.817,419.748,343.817,401.185z"/>
</g>
<g style="opacity:0.1;">
	<path style="fill:#2C2A25;" d="M133.603,429.192h37.69v-90.895H138.04V308.92c19.951-3.876,32.701-8.865,45.999-17.174h34.922
		v137.45h31.589v38.242H133.603V429.192z"/>
	<path style="fill:#2C2A25;" d="M369.999,338.853c-5.541-6.097-16.627-12.194-26.604-12.194c-17.183,0-30.761,11.918-32.421,47.388
		c8.594-11.362,23.556-17.459,32.973-17.459c29.933,0,53.209,16.627,53.209,54.317c0,37.686-27.717,59.853-60.966,59.853
		c-33.81,0-68.723-24.384-68.723-88.122s34.918-94.224,72.604-94.224c24.94,0,43.231,10.534,54.864,22.167L369.999,338.853z
		 M353.929,410.905c0-16.907-9.421-21.064-19.395-21.064c-8.042,0-16.075,4.161-22.448,14.962c3.881,24.669,14.406,30.485,23,30.485
		C345.064,435.289,353.929,429.472,353.929,410.905z"/>
</g>
<g>
	<path style="fill:#FDF9EA;" d="M121.373,171.394c3.133,5.505,7.267,8.135,11.393,8.135c6.636,0,10.138-3.378,10.138-14.268V112.31
		h18.527v54.451c0,15.768-8.135,28.661-26.159,28.661c-12.519,0-20.779-4.887-26.413-14.771L121.373,171.394z"/>
	<path style="fill:#FDF9EA;" d="M186.469,112.31h18.402v45.688c0,16.026,5.007,21.531,14.148,21.531
		c9.137,0,14.522-5.505,14.522-21.531V112.31h17.77v43.814c0,27.41-11.139,39.301-32.292,39.301
		c-21.157,0-32.546-11.891-32.546-39.301V112.31H186.469z"/>
	<path style="fill:#FDF9EA;" d="M276.723,112.31h18.527v66.093h32.167v15.519h-50.694V112.31z"/>
	<path style="fill:#FDF9EA;" d="M351.454,164.883l-24.535-52.572h19.653l7.383,18.776c2.132,6.133,4.255,11.771,6.631,18.024h0.498
		c2.256-6.253,4.633-11.891,6.889-18.024l7.259-18.776h19.275l-24.66,52.573v29.039H351.45v-29.039H351.454z"/>
</g>
<g>
</g>
<g>
</g>
<g>
</g>
<g>
</g>
<g>
</g>
<g>
</g>
<g>
</g>
<g>
</g>
<g>
</g>
<g>
</g>
<g>
</g>
<g>
</g>
<g>
</g>
<g>
</g>
<g>
</g>
</svg>
