<?xml version="1.0" encoding="iso-8859-1"?>
<!-- Generator: Adobe Illustrator 19.0.0, SVG Export Plug-In . SVG Version: 6.00 Build 0)  -->
<svg version="1.1" id="Layer_1" xmlns="http://www.w3.org/2000/svg" xmlns:xlink="http://www.w3.org/1999/xlink" x="0px" y="0px"
	 viewBox="0 0 512 512" style="enable-background:new 0 0 512 512;" xml:space="preserve">
<polygon style="fill:#464655;" points="326.621,454.621 185.379,454.621 194.207,366.345 317.793,366.345 "/>
<path style="fill:#5B5D6E;" d="M485.517,384H26.483C11.857,384,0,372.143,0,357.517V75.034c0-14.626,11.857-26.483,26.483-26.483
	h459.034c14.626,0,26.483,11.857,26.483,26.483v282.483C512,372.143,500.143,384,485.517,384z"/>
<path style="fill:#FFFFFF;" d="M467.862,348.69H44.138c-4.875,0-8.828-3.953-8.828-8.828V92.69c0-4.875,3.953-8.828,8.828-8.828
	h423.724c4.875,0,8.828,3.953,8.828,8.828v247.172C476.69,344.737,472.737,348.69,467.862,348.69z"/>
<path style="fill:#28AFF0;" d="M247.172,313.379H88.276c-9.751,0-17.655-7.904-17.655-17.655V136.828
	c0-9.751,7.904-17.655,17.655-17.655h158.897c9.751,0,17.655,7.904,17.655,17.655v158.897
	C264.828,305.474,256.924,313.379,247.172,313.379z"/>
<path style="fill:#5A4146;" d="M97.103,313.379h141.241c0-61.793,2.058-167.724-70.621-167.724
	C94.605,145.655,97.103,251.586,97.103,313.379z"/>
<path style="fill:#EFF2FA;" d="M467.862,83.862H44.138c-4.875,0-8.828,3.953-8.828,8.828v17.655c0-4.875,3.953-8.828,8.828-8.828
	h423.724c4.875,0,8.828,3.953,8.828,8.828V92.69C476.69,87.815,472.737,83.862,467.862,83.862z"/>
<path style="fill:#D29B6E;" d="M225.103,313.379l-22.001-12.573c-5.501-3.144-8.896-8.993-8.896-15.329v-16.236h-52.966v16.237
	c0,6.336-3.395,12.185-8.896,15.329l-22.002,12.572H225.103z"/>
<path style="fill:#F0C087;" d="M211.862,207.448v46.798c0,9.302-4.881,17.922-12.857,22.709l-22.197,13.319
	c-5.591,3.354-12.576,3.354-18.167,0l-22.197-13.319c-7.977-4.786-12.857-13.407-12.857-22.709v-46.798c0,0,52.966,0,70.621-17.655
	L211.862,207.448z"/>
<path style="fill:#5B5D6E;" d="M220.69,225.103c-4.879,0-8.828,3.953-8.828,8.828c0,9.737-7.923,17.655-17.655,17.655h-26.483
	v17.655h26.483c19.474,0,35.31-15.84,35.31-35.31C229.517,229.056,225.569,225.103,220.69,225.103z"/>
<circle style="fill:#707487;" cx="167.724" cy="260.414" r="8.828"/>
<path style="fill:#5B5D6E;" d="M344.276,463.448H167.724c-4.875,0-8.828-3.953-8.828-8.828l0,0c0-4.875,3.953-8.828,8.828-8.828
	h176.552c4.875,0,8.828,3.953,8.828,8.828l0,0C353.103,459.496,349.151,463.448,344.276,463.448z"/>
<path style="fill:#EFF2FA;" d="M432.552,233.931H308.966c-4.875,0-8.828,3.953-8.828,8.828v61.793c0,4.875,3.953,8.828,8.828,8.828
	h123.586c4.875,0,8.828-3.953,8.828-8.828v-61.793C441.379,237.884,437.427,233.931,432.552,233.931z"/>
<g>
	<path style="fill:#C7CFE2;" d="M432.552,216.276h-70.621c-4.875,0-8.828-3.953-8.828-8.828l0,0c0-4.875,3.953-8.828,8.828-8.828
		h70.621c4.875,0,8.828,3.953,8.828,8.828l0,0C441.379,212.323,437.427,216.276,432.552,216.276z"/>
	<path style="fill:#C7CFE2;" d="M432.552,180.966h-70.621c-4.875,0-8.828-3.953-8.828-8.828l0,0c0-4.875,3.953-8.828,8.828-8.828
		h70.621c4.875,0,8.828,3.953,8.828,8.828l0,0C441.379,177.013,437.427,180.966,432.552,180.966z"/>
	<path style="fill:#C7CFE2;" d="M432.552,145.655h-70.621c-4.875,0-8.828-3.953-8.828-8.828l0,0c0-4.875,3.953-8.828,8.828-8.828
		h70.621c4.875,0,8.828,3.953,8.828,8.828l0,0C441.379,141.703,437.427,145.655,432.552,145.655z"/>
</g>
<g>
	<path style="fill:#D7DEED;" d="M326.621,216.276h-17.655c-4.875,0-8.828-3.953-8.828-8.828l0,0c0-4.875,3.953-8.828,8.828-8.828
		h17.655c4.875,0,8.828,3.953,8.828,8.828l0,0C335.448,212.323,331.496,216.276,326.621,216.276z"/>
	<path style="fill:#D7DEED;" d="M326.621,180.966h-17.655c-4.875,0-8.828-3.953-8.828-8.828l0,0c0-4.875,3.953-8.828,8.828-8.828
		h17.655c4.875,0,8.828,3.953,8.828,8.828l0,0C335.448,177.013,331.496,180.966,326.621,180.966z"/>
	<path style="fill:#D7DEED;" d="M326.621,145.655h-17.655c-4.875,0-8.828-3.953-8.828-8.828l0,0c0-4.875,3.953-8.828,8.828-8.828
		h17.655c4.875,0,8.828,3.953,8.828,8.828l0,0C335.448,141.703,331.496,145.655,326.621,145.655z"/>
</g>
<g>
</g>
<g>
</g>
<g>
</g>
<g>
</g>
<g>
</g>
<g>
</g>
<g>
</g>
<g>
</g>
<g>
</g>
<g>
</g>
<g>
</g>
<g>
</g>
<g>
</g>
<g>
</g>
<g>
</g>
</svg>
